<svg xmlns="http://www.w3.org/2000/svg" version="1.1" xmlns:xlink="http://www.w3.org/1999/xlink" xmlns:svgjs="http://svgjs.dev/svgjs" width="2000" height="2250" viewBox="0 0 2000 2250"><g transform="matrix(1,0,0,1,0.0004624580885774776,0)"><svg viewBox="0 0 320 360" data-background-color="#ffffff" preserveAspectRatio="xMidYMid meet" height="2250" width="2000" xmlns="http://www.w3.org/2000/svg" xmlns:xlink="http://www.w3.org/1999/xlink"><g id="tight-bounds" transform="matrix(1,0,0,1,-0.00007399329416557521,0)"><svg viewBox="0 0 320 360" height="360" width="320"><g><svg></svg></g><g><svg viewBox="0 0 320 360" height="360" width="320"><g><path transform="translate(-17.30355,3.60951) scale(3.54253,3.54253)" d="M50 95v0c-2.2 0-4.1-1.4-4.7-3.5-0.3-1.1-1.5-1.7-2.5-1.4-0.4 0.1-0.8 0.4-1.1 0.8-1.6 2.2-4.6 2.8-6.9 1.2-1.4-0.9-2.2-2.5-2.1-4.2 0-1.1-0.9-2.1-2-2.1-0.5 0-0.9 0.1-1.3 0.4-2.2 1.6-5.3 1.2-6.9-1-1-1.3-1.3-3-0.7-4.6 0.4-1.1-0.2-2.2-1.3-2.6-0.4-0.1-0.9-0.1-1.3 0-2.6 0.9-5.4-0.5-6.3-3.1-0.5-1.5-0.3-3.3 0.7-4.6 0.7-0.9 0.5-2.2-0.4-2.8-0.4-0.3-0.8-0.4-1.3-0.4-2.7 0.1-5-2.1-5-4.8 0-1.7 0.8-3.2 2.1-4.2 0.9-0.6 1.1-1.9 0.5-2.8-0.3-0.4-0.6-0.6-1.1-0.8-2.6-0.8-4.1-3.6-3.3-6.2 0.5-1.6 1.7-2.8 3.3-3.3 1.1-0.3 1.7-1.5 1.4-2.5-0.1-0.4-0.4-0.8-0.8-1.1-2.2-1.6-2.8-4.6-1.2-6.9 0.9-1.4 2.5-2.2 4.2-2.1 1.1 0 2.1-0.9 2.1-2 0-0.5-0.1-0.9-0.4-1.3-1.6-2.2-1.2-5.3 1-6.9 1.3-1 3-1.3 4.6-0.7 1.1 0.4 2.2-0.2 2.6-1.3 0.1-0.4 0.1-0.9 0-1.3-0.9-2.6 0.5-5.4 3.1-6.3 1.5-0.5 3.3-0.3 4.6 0.7 0.9 0.7 2.2 0.5 2.8-0.4 0.3-0.4 0.4-0.8 0.4-1.3-0.1-2.7 2.1-5 4.8-5 1.7 0 3.2 0.8 4.2 2.1 0.6 0.9 1.9 1.1 2.8 0.5 0.4-0.3 0.6-0.6 0.8-1.1 0.8-2.6 3.6-4.1 6.2-3.3 1.6 0.5 2.8 1.7 3.3 3.3v0c0.2 0.7 0.8 1.3 1.6 1.4 0.8 0.1 1.5-0.2 2-0.8 1.6-2.2 4.6-2.8 6.9-1.2 1.4 0.9 2.2 2.5 2.1 4.2 0 1.1 0.9 2.1 2 2.1 0.5 0 0.9-0.1 1.3-0.4 2.2-1.6 5.3-1.2 6.9 1 1 1.3 1.3 3 0.7 4.6-0.4 1.1 0.2 2.2 1.3 2.6 0.4 0.1 0.9 0.1 1.3 0 2.6-0.9 5.4 0.5 6.3 3.1 0.5 1.5 0.3 3.3-0.7 4.6-0.7 0.9-0.5 2.2 0.4 2.8 0.4 0.3 0.8 0.4 1.3 0.4 2.7-0.1 5 2.1 5 4.8 0 1.7-0.8 3.2-2.1 4.2-0.7 0.4-1 1.2-0.9 2 0.1 0.8 0.7 1.4 1.4 1.6 2.6 0.8 4.1 3.6 3.3 6.2-0.5 1.6-1.7 2.8-3.3 3.3-1.1 0.3-1.7 1.5-1.4 2.5 0.1 0.4 0.4 0.8 0.8 1.1 2.2 1.6 2.8 4.6 1.2 6.9-0.9 1.4-2.5 2.2-4.2 2.1-0.8 0-1.5 0.4-1.9 1.1-0.4 0.7-0.3 1.5 0.2 2.2 1.6 2.2 1.2 5.3-1 6.9-1.3 1-3 1.3-4.6 0.7-1.1-0.4-2.2 0.2-2.6 1.3-0.1 0.4-0.1 0.9 0 1.3 0.9 2.6-0.5 5.4-3.1 6.3-1.5 0.5-3.3 0.3-4.6-0.7-0.9-0.7-2.2-0.5-2.8 0.4-0.3 0.4-0.4 0.8-0.4 1.3 0.1 2.7-2.1 5-4.8 5-1.7 0-3.2-0.8-4.2-2.1-0.4-0.6-1.2-1-2-0.8-0.8 0.1-1.4 0.7-1.6 1.4-0.6 2.1-2.5 3.5-4.7 3.5zM43.3 87.2c0.3 0 0.5 0 0.8 0.1 1.9 0.3 3.4 1.6 3.9 3.4 0.3 1.1 1.5 1.7 2.5 1.3 0.6-0.2 1.1-0.7 1.3-1.3 0.8-2.6 3.6-4.1 6.2-3.3 1 0.3 2 1 2.6 1.9 0.7 0.9 1.9 1.1 2.9 0.4 0.5-0.4 0.8-1 0.8-1.6-0.1-2.7 2.1-5 4.8-5 1.1 0 2.2 0.3 3.1 1 0.9 0.7 2.2 0.5 2.8-0.4 0.4-0.5 0.5-1.3 0.3-1.9-0.9-2.6 0.4-5.4 3-6.3 1.1-0.4 2.2-0.4 3.3 0 1.1 0.4 2.2-0.2 2.6-1.3 0.2-0.6 0.1-1.4-0.3-1.9-1.6-2.2-1.2-5.3 1-6.9 0.9-0.7 2-1 3.1-1 1.1 0 2-0.9 2.1-2 0-0.7-0.3-1.3-0.9-1.7-2.2-1.6-2.8-4.6-1.2-6.9 0.6-0.9 1.5-1.6 2.6-1.9 1.1-0.3 1.7-1.5 1.3-2.5-0.2-0.6-0.7-1.1-1.3-1.3-2.6-0.8-4.1-3.6-3.3-6.2 0.3-1 1-2 1.9-2.6 0.9-0.7 1.1-2 0.4-2.9-0.4-0.5-1-0.8-1.6-0.8-2.7 0.1-5-2.1-5-4.8 0-1.1 0.3-2.2 1-3.1 0.7-0.9 0.5-2.2-0.4-2.8-0.5-0.4-1.3-0.5-1.9-0.3-2.6 0.9-5.4-0.4-6.3-3-0.4-1.1-0.4-2.2 0-3.3 0.4-1.1-0.2-2.2-1.3-2.6-0.6-0.2-1.4-0.1-1.9 0.3-2.2 1.6-5.3 1.2-6.9-1-0.7-0.9-1-2-1-3.1 0-1.1-0.9-2-2.1-2-0.6 0-1.3 0.3-1.6 0.8-1.6 2.2-4.6 2.8-6.9 1.2-0.9-0.6-1.6-1.5-1.9-2.6v0c-0.3-1.1-1.5-1.7-2.5-1.3-0.6 0.2-1.1 0.7-1.3 1.3-0.8 2.6-3.6 4.1-6.2 3.3-1-0.3-2-1-2.6-1.9-0.7-0.9-1.9-1.1-2.9-0.4-0.5 0.4-0.8 1-0.8 1.6 0.1 2.7-2.1 5-4.8 5-1.1 0-2.2-0.3-3.1-1-0.9-0.7-2.2-0.5-2.8 0.4-0.4 0.5-0.5 1.3-0.3 1.9 0.9 2.6-0.4 5.4-3 6.3-1.1 0.4-2.2 0.4-3.3 0-1.1-0.4-2.2 0.2-2.6 1.3-0.2 0.6-0.1 1.4 0.3 1.9 1.6 2.2 1.2 5.3-1 6.9-0.9 0.7-2 1-3.1 1-1.1 0-2 0.9-2 2.1 0 0.6 0.3 1.3 0.8 1.6 2.2 1.6 2.8 4.6 1.2 6.9-0.6 0.9-1.5 1.6-2.6 1.9-1.1 0.3-1.7 1.5-1.3 2.5 0.2 0.6 0.7 1.1 1.3 1.3 2.6 0.8 4.1 3.6 3.3 6.2-0.3 1-1 2-1.9 2.6-0.9 0.7-1.1 1.9-0.4 2.9 0.4 0.5 1 0.8 1.6 0.8 2.7-0.1 5 2.1 5 4.8 0 1.1-0.3 2.2-1 3.1-0.7 0.9-0.5 2.2 0.4 2.8 0.5 0.4 1.3 0.5 1.9 0.3 2.6-0.9 5.4 0.4 6.3 3 0.4 1.1 0.4 2.2 0 3.3-0.4 1.1 0.2 2.2 1.3 2.6 0.6 0.2 1.4 0.1 1.9-0.3 2.2-1.6 5.3-1.2 6.9 1 0.7 0.9 1 2 1 3.1 0 1.1 0.9 2 2 2.1 0.7 0 1.3-0.3 1.7-0.9 1-1.3 2.5-2.1 4.1-2.1z" fill="#556970" fill-rule="nonzero" stroke="none" stroke-width="1" stroke-linecap="butt" stroke-linejoin="miter" stroke-miterlimit="10" stroke-dasharray="" stroke-dashoffset="0" font-family="none" font-weight="none" font-size="none" text-anchor="none" style="mix-blend-mode: normal" data-fill-palette-color="tertiary"></path></g><g transform="matrix(1,0,0,1,56,166.95890267232036)"><svg viewBox="0 0 208 26.082194655359274" height="26.082194655359274" width="208"><g><svg viewBox="0 0 208 26.082194655359274" height="26.082194655359274" width="208"><g><svg viewBox="0 0 239.73368411188588 30.061445261791434" height="26.082194655359274" width="208"><g transform="matrix(1,0,0,1,31.733684111885875,0)"><svg viewBox="0 0 208 30.061445261791434" height="30.061445261791434" width="208"><g id="textblocktransform"><svg viewBox="0 0 208 30.061445261791434" height="30.061445261791434" width="208" id="textblock"><g><svg viewBox="0 0 208 30.061445261791434" height="30.061445261791434" width="208"><g transform="matrix(1,0,0,1,0,0)"><svg width="208" viewBox="-0.75 -32.45 231.08 33.400000000000006" height="30.061445261791434" data-palette-color="#556970"><path d="M16.6 0.5L16.45 0.15 16.65-1.8Q19.2-2 20.15-2.4 21.1-2.8 21.1-3.7L21.1-3.7Q21.1-4.7 20.65-6.1L20.65-6.1 19-11.55Q17.8-11.6 13.8-11.6L13.8-11.6Q11.4-11.6 8.35-11.2L8.35-11.2 6.5-6Q6.05-4.65 6.05-4.05L6.05-4.05Q6.05-2.95 6.75-2.48 7.45-2 9.05-2L9.05-2 11.9-2 12-1.8 11.7 0.35Q11.1 0.3 8.95 0.15 6.8 0 4.75 0L4.75 0Q2.9 0 1.33 0.05-0.25 0.1-0.75 0.15L-0.75 0.15-0.35-2.2Q1.05-2.35 1.9-3.18 2.75-4 3.55-6.05L3.55-6.05 13.3-31.6 16.45-32.45 16.85-32.45Q17.15-31.25 18.38-26.9 19.6-22.55 21.38-16.6 23.15-10.65 24.8-5.65L24.8-5.65Q25.4-3.8 26.4-3.05 27.4-2.3 29.6-2.1L29.6-2.1 29.7-1.9 29.35 0.15Q28.75 0.15 27.18 0.08 25.6 0 24.05 0L24.05 0Q21.65 0 19.43 0.2 17.2 0.4 16.6 0.5L16.6 0.5ZM9.25-13.65L13.65-13.65Q15.45-13.65 18.3-13.9L18.3-13.9 14.35-27 14-27 9.25-13.65ZM49.05 0.95L39.45-26 39.2-26Q38.9-22.7 38.15-13.63 37.4-4.55 37.4-3.75L37.4-3.75Q37.4-2.2 38.95-2.2L38.95-2.2 41-2.25 41.1-2.05 40.65 0.2Q40.1 0.15 38.67 0.08 37.25 0 35.8 0L35.8 0Q34.55 0 33.22 0.18 31.9 0.35 31.5 0.4L31.5 0.4 31.75-1.9Q33.35-2.1 34.05-2.93 34.75-3.75 34.95-5.75L34.95-5.75Q35.45-10.45 36.27-18.43 37.1-26.4 37.1-27.35L37.1-27.35Q37.1-28.65 36.07-29.3 35.05-29.95 32.8-30.1L32.8-30.1 32.65-30.35 33.05-32.1Q33.7-32.05 35.6-31.95 37.5-31.85 38.5-31.85L38.5-31.85Q39.4-31.85 40.47-31.93 41.55-32 41.9-32.05L41.9-32.05Q43.9-25.6 45.77-20.08 47.65-14.55 48.85-11.3 50.05-8.05 50.35-7.25L50.35-7.25 50.6-7.25Q51.3-9.1 53.8-16.05 56.3-23 59.25-31.95L59.25-31.95Q59.25-32 60.6-31.9L60.6-31.9 62.55-31.85Q63.5-31.85 65.4-31.98 67.3-32.1 67.95-32.15L67.95-32.15 68.05-31.95 67.8-30.1Q65.65-29.85 64.75-29.23 63.85-28.6 63.85-27.35L63.85-27.35Q63.85-26.25 64.3-19.18 64.75-12.1 65.15-6.95L65.15-6.95Q65.4-4.9 65.65-3.93 65.9-2.95 66.35-2.58 66.8-2.2 67.6-2.2L67.6-2.2Q68.05-2.2 68.45-2.25 68.85-2.3 69-2.3L69-2.3 69.1-2.1 68.65 0.15Q68.15 0.1 66.77 0.05 65.4 0 63.9 0L63.9 0Q62.55 0 60.87 0.18 59.2 0.35 58.7 0.4L58.7 0.4 58.9-1.9Q60.45-2.1 61.15-2.7 61.85-3.3 61.85-4.4L61.85-4.4Q61.85-5.45 61.12-14.15 60.4-22.85 60.15-26L60.15-26 59.9-26 50.25 0.6 49.05 0.95ZM74.34 0.6L74.64-1.7Q77-2.15 77.82-3.03 78.64-3.9 78.64-6L78.64-6 78.7-27Q78.7-28.6 78.32-29.15 77.95-29.7 76.84-29.7L76.84-29.7 74.75-29.6 74.64-29.8 75-32Q75.8-32 76.25-31.95L76.25-31.95 80.95-31.85Q83.2-31.85 86.7-32.3L86.7-32.3 86.5-30.05Q84.45-29.8 83.72-29.23 83-28.65 82.9-27.2L82.9-27.2Q82.59-21.35 82.4-14.98 82.2-8.6 82.2-5.6L82.2-5.6Q82.2-3.55 82.65-2.88 83.09-2.2 84.4-2.2L84.4-2.2Q85.25-2.2 87.05-2.35L87.05-2.35 87.15-2.15 86.7 0.15Q86 0.15 85.59 0.1L85.59 0.1Q82.09 0 80.14 0L80.14 0Q77.7 0 74.34 0.6L74.34 0.6ZM92.74 0.4L93.09-1.9Q95.29-2.3 95.99-3.08 96.69-3.85 96.69-6L96.69-6 96.74-27Q96.74-28.6 96.37-29.15 95.99-29.7 94.89-29.7L94.89-29.7Q94.39-29.7 93.89-29.65 93.39-29.6 93.19-29.6L93.19-29.6 93.09-29.8 93.44-32Q94.04-31.95 95.69-31.9 97.34-31.85 98.99-31.85L98.99-31.85Q100.54-31.85 102.52-31.93 104.49-32 105.29-32.05L105.29-32.05Q110.49-32.05 113.24-29.75 115.99-27.45 115.99-23.15L115.99-23.15Q115.99-20.35 114.37-17.82 112.74-15.3 110.09-13.75 107.44-12.2 104.54-12.2L104.54-12.2 100.34-12.2 100.24-7.3Q100.24-4.9 100.39-3.88 100.54-2.85 100.97-2.53 101.39-2.2 102.44-2.2L102.44-2.2Q103.29-2.2 104.07-2.25 104.84-2.3 105.14-2.35L105.14-2.35 105.24-2.15 104.79 0.15Q104.29 0.1 102.97 0.05 101.64 0 100.19 0L100.19 0Q98.19 0 95.52 0.15 92.84 0.3 92.74 0.4L92.74 0.4ZM105.74-14.4Q108.74-14.9 110.27-16.85 111.79-18.8 111.79-22.2L111.79-22.2Q111.79-26.05 109.52-27.83 107.24-29.6 102.39-29.6L102.39-29.6Q101.49-29.6 101.29-29.5 101.09-29.4 101.04-28.9L101.04-28.9Q100.59-22.55 100.44-15.15L100.44-15.15 105.74-14.4ZM120.54 0.5L120.84-1.8Q122.79-2.1 123.52-2.98 124.24-3.85 124.24-6L124.24-6 124.29-27Q124.29-28.6 123.92-29.15 123.54-29.7 122.44-29.7L122.44-29.7Q121.94-29.7 121.44-29.65 120.94-29.6 120.74-29.6L120.74-29.6 120.64-29.8 120.99-32Q121.59-31.95 123.24-31.9 124.89-31.85 126.59-31.85L126.59-31.85Q127.94-31.85 129.66-32.02 131.39-32.2 131.94-32.3L131.94-32.3 131.74-30.05Q130.09-29.85 129.47-29.4 128.84-28.95 128.72-28.35 128.59-27.75 128.44-25.4L128.44-25.4Q128.14-21.15 127.99-15.7 127.84-10.25 127.84-6.1L127.84-6.1Q127.84-4.3 128.14-3.53 128.44-2.75 129.26-2.5 130.09-2.25 132.09-2.25L132.09-2.25Q135.14-2.25 136.56-2.75 137.99-3.25 138.72-4.7 139.44-6.15 140.04-9.35L140.04-9.35 142.24-9.6 142.39-9.35Q142.24-8.55 141.76-5.75 141.29-2.95 140.94 0.15L140.94 0.15 140.69 0.45Q139.24 0.35 134.72 0.18 130.19 0 127.24 0L127.24 0Q124.89 0 122.97 0.2 121.04 0.4 120.54 0.5L120.54 0.5ZM160.34 0.5L160.19 0.15 160.39-1.8Q162.94-2 163.89-2.4 164.84-2.8 164.84-3.7L164.84-3.7Q164.84-4.7 164.39-6.1L164.39-6.1 162.74-11.55Q161.54-11.6 157.54-11.6L157.54-11.6Q155.14-11.6 152.09-11.2L152.09-11.2 150.24-6Q149.79-4.65 149.79-4.05L149.79-4.05Q149.79-2.95 150.49-2.48 151.19-2 152.79-2L152.79-2 155.64-2 155.74-1.8 155.44 0.35Q154.84 0.3 152.69 0.15 150.54 0 148.49 0L148.49 0Q146.64 0 145.06 0.05 143.49 0.1 142.99 0.15L142.99 0.15 143.39-2.2Q144.79-2.35 145.64-3.18 146.49-4 147.29-6.05L147.29-6.05 157.04-31.6 160.19-32.45 160.59-32.45Q160.89-31.25 162.11-26.9 163.34-22.55 165.11-16.6 166.89-10.65 168.54-5.65L168.54-5.65Q169.14-3.8 170.14-3.05 171.14-2.3 173.34-2.1L173.34-2.1 173.44-1.9 173.09 0.15Q172.49 0.15 170.91 0.08 169.34 0 167.79 0L167.79 0Q165.39 0 163.16 0.2 160.94 0.4 160.34 0.5L160.34 0.5ZM152.99-13.65L157.39-13.65Q159.19-13.65 162.04-13.9L162.04-13.9 158.09-27 157.74-27 152.99-13.65ZM189.38 0.6Q184.88 0.6 181.49-1.3 178.09-3.2 176.26-6.68 174.44-10.15 174.44-14.85L174.44-14.85Q174.44-19.85 176.69-23.88 178.94-27.9 182.91-30.18 186.88-32.45 191.88-32.45L191.88-32.45Q193.74-32.45 195.66-32.18 197.59-31.9 198.91-31.63 200.24-31.35 200.59-31.25L200.59-31.25 200.78-30.95Q200.69-30.65 200.46-29.5 200.24-28.35 199.96-26.5 199.69-24.65 199.53-22.6L199.53-22.6 197.13-22.4Q197.19-22.65 197.24-23.33 197.28-24 197.28-24.85L197.28-24.85Q197.28-29.5 189.94-29.5L189.94-29.5Q186.63-29.5 184.13-27.9 181.63-26.3 180.28-23.38 178.94-20.45 178.94-16.5L178.94-16.5Q178.94-12.15 180.36-8.85 181.78-5.55 184.38-3.73 186.99-1.9 190.38-1.9L190.38-1.9Q193.78-1.9 195.86-3.83 197.94-5.75 198.88-9.8L198.88-9.8 201.28-10Q201.13-9.25 200.63-6.68 200.13-4.1 199.94-1.85L199.94-1.85 199.63-1.4Q199.63-1.35 198.11-0.83 196.59-0.3 194.31 0.15 192.03 0.6 189.38 0.6L189.38 0.6ZM230.18-8.6L230.33-8.35Q229.48-4.3 228.98 0.05L228.98 0.05 228.73 0.35Q218.23 0 213.58 0L213.58 0Q209.88 0 206.63 0.5L206.63 0.5 206.93-1.8Q209.18-2.1 210.01-2.98 210.83-3.85 210.83-6L210.83-6 210.88-27Q210.88-28.6 210.51-29.15 210.13-29.7 209.03-29.7L209.03-29.7 207.33-29.6 207.23-29.8 207.58-32Q212.68-31.85 214.53-31.85L214.53-31.85Q220.48-31.85 223.78-31.98 227.08-32.1 229.53-32.45L229.53-32.45 229.68-32.15Q228.78-28.2 228.53-23.85L228.53-23.85 226.13-23.65 226.23-25.8Q226.23-27.55 225.78-28.23 225.33-28.9 223.83-29.13 222.33-29.35 218.58-29.35L218.58-29.35Q216.83-29.35 216.18-29.25 215.53-29.15 215.33-28.78 215.13-28.4 215.08-27.4L215.08-27.4 214.68-17.7 219.83-17.65Q221.78-17.65 225.93-18.2L225.93-18.2 226.13-17.95 225.43-15Q219.88-15.15 218.43-15.15L218.43-15.15Q216.78-15.15 214.58-14.8L214.58-14.8 214.38-5.25Q214.38-3.8 214.63-3.23 214.88-2.65 215.66-2.45 216.43-2.25 218.33-2.25L218.33-2.25Q222.53-2.25 224.31-2.65 226.08-3.05 226.83-4.25 227.58-5.45 227.98-8.35L227.98-8.35 230.18-8.6Z" opacity="1" transform="matrix(1,0,0,1,0,0)" fill="#556970" class="wordmark-text-0" data-fill-palette-color="primary" id="text-0"></path></svg></g></svg></g></svg></g></svg></g><g transform="matrix(1,0,0,1,0,0.2822769710082227)"><svg viewBox="0 0 24.6368983602632 29.49689131977499" height="29.49689131977499" width="24.6368983602632"><g><svg xmlns="http://www.w3.org/2000/svg" xmlns:xlink="http://www.w3.org/1999/xlink" version="1.1" x="0" y="0" viewBox="9 2 81.018 97" enable-background="new 0 0 100 100" xml:space="preserve" height="29.49689131977499" width="24.6368983602632" class="icon-icon-0" data-fill-palette-color="accent" id="icon-0"><rect x="11" y="93" width="79" height="6" fill="#aba944" data-fill-palette-color="accent"></rect><rect x="18" y="49" width="9" height="38" fill="#aba944" data-fill-palette-color="accent"></rect><rect x="10" y="42" width="79" height="6" fill="#aba944" data-fill-palette-color="accent"></rect><rect x="31" y="49" width="8" height="38" fill="#aba944" data-fill-palette-color="accent"></rect><rect x="45" y="49" width="9" height="38" fill="#aba944" data-fill-palette-color="accent"></rect><rect x="59" y="49" width="9" height="38" fill="#aba944" data-fill-palette-color="accent"></rect><rect x="73" y="49" width="8" height="38" fill="#aba944" data-fill-palette-color="accent"></rect><polygon points="49.508,30.584 9,41 90.018,41 " fill="#aba944" data-fill-palette-color="accent"></polygon><rect x="13" y="88" width="74" height="3" fill="#aba944" data-fill-palette-color="accent"></rect><path d="M39.912 23.395c0.197-3.475 1.044-6.7 2.246-9.117 0.427-0.857 1.166-1.709 1.057-2.246-0.17 0.076-0.506-0.101-0.66 0-3.254 2.124-5.756 6.442-6.21 11.23C37.283 23.557 38.758 23.316 39.912 23.395z" fill="#aba944" data-fill-palette-color="accent"></path><path d="M40.572 23c1.277 0 2.555 0 3.832 0 0.205-4 0.533-8 1.718-11-0.616 0-1.233 0-1.85 0C42.026 15 40.688 19 40.572 23z" fill="#aba944" data-fill-palette-color="accent"></path><path d="M49.293 12c-0.793 0-1.586 0-2.379 0-1.471 3-1.781 7-1.85 11 1.366 0 2.73 0 4.096 0C49.467 20 49.205 16 49.293 12z" fill="#aba944" data-fill-palette-color="accent"></path><path d="M49.953 23.379c1.33-0.08 2.984 0.158 4.096-0.141C53.961 19.01 53.51 15 52.332 12c-0.838 0-1.674 0-2.512 0C49.908 16 49.646 19.854 49.953 23.379z" fill="#aba944" data-fill-palette-color="accent"></path><path d="M58.541 23c-0.197-4-1.582-8-3.566-11-0.662 0-1.322 0-1.982 0 1.131 3 1.473 7 1.719 11C55.986 23 57.264 23 58.541 23z" fill="#aba944" data-fill-palette-color="accent"></path><path d="M62.637 23c-0.076-2-0.998-4.827-2.113-6.673-1.078-1.784-2.6-3.672-4.625-4.394-0.102 0.03-0.26-0.144-0.264-0.016C57.721 14.763 58.813 19 59.201 23 60.348 23 61.492 23 62.637 23z" fill="#aba944" data-fill-palette-color="accent"></path><path d="M63.693 24.179C61.951 23.586 58.777 24 56.561 24c-7.123 0-15.018 0-21.404 0-0.494 1-1.239 1-1.453 3 10.569 0 21.139 0 31.709 0C64.963 26 64.588 24.482 63.693 24.179z" fill="#aba944" data-fill-palette-color="accent"></path><path d="M33 34c4.249-0.859 15.332-4.399 16.557-4.396C50.775 29.608 61.813 33.166 66 34c0.43-1.416-0.395-3.034-0.588-4.046-0.16-0.839 0.113-1.954 0-2.954-10.525 0-21.052 0-31.578 0-0.153 0-0.143 0.256-0.131 0.443C34.172 30.026 32.699 31.585 33 34z" fill="#aba944" data-fill-palette-color="accent"></path><path d="M49 6c-0.055 0-0.106 0.012-0.16 0.015-0.029 0.029-0.07 0.048-0.115 0.048-0.028 0-0.05-0.018-0.073-0.031C45.501 6.362 43 11 43 11h12C55 11 52.313 6 49 6z" fill="#aba944" data-fill-palette-color="accent"></path><path d="M48.896 6.015C48.926 5.985 49 5.945 49 5.9V2.163C49 2.073 49.09 2 49 2s0 0.073 0 0.163V5.9c0 0.061-0.18 0.104-0.13 0.132 0.023 0.013-0.036 0.031-0.007 0.031C48.908 6.063 48.867 6.044 48.896 6.015z" fill="#aba944" data-fill-palette-color="accent"></path><path d="M50.315 3.33C50.515 3.408 50.703 3.48 51 3.361V2.136c-0.285 0.124-0.449 0.061-0.655-0.019C50.203 2.063 50.042 2 49.821 2c-0.371 0-0.648 0.18-0.771 0.277v1.244c0.059-0.054 0.355-0.302 0.771-0.302C50.027 3.219 50.174 3.275 50.315 3.33z" fill="#aba944" data-fill-palette-color="accent"></path></svg></g></svg></g></svg></g></svg></g></svg></g></svg></g><defs></defs></svg><rect width="320" height="360" fill="none" stroke="none" visibility="hidden"></rect></g></svg></g></svg>